# xmcd
#
# Track frame offsets:
#	150
#	14413
#	30771
#	47523
#	61563
#	80795
#	98601
#	111469
#	134004
#	151256
#	168862
#	182640
#
# Disc length: 2632 seconds
#
# Revision: 1
# Processed by: cddbd v1.5.2PL0 Copyright (c) Steve Scherf et al.
# Submitted via: audiograbber 1.83.01
#
DISCID=8b0a460c
DTITLE=Mike Aiken - Captains and Cowboys
DYEAR=2013
DGENRE=Country
TTITLE0=Virginia
TTITLE1=Coal Train
TTITLE2=Your Memory Wins
TTITLE3=Get Down River
TTITLE4=Bring Out The Bourbon
TTITLE5=Put A Sail On It
TTITLE6=Dance With The Wind
TTITLE7=Save The Whales
TTITLE8=Summertime Song
TTITLE9=Night Rider's Lament
TTITLE10=Take The Boy Fishin'
TTITLE11=Captains and Cowboys
EXTD=
EXTT0=
EXTT1=
EXTT2=
EXTT3=
EXTT4=
EXTT5=
EXTT6=
EXTT7=
EXTT8=
EXTT9=
EXTT10=
EXTT11=
PLAYORDER=
